<svg width="82" height="149" viewBox="0 0 82 149" fill="none" xmlns="http://www.w3.org/2000/svg">
<path d="M72.2079 0H9.79194C4.59194 0 0.335938 4.52534 0.335938 10.0639V138.932C0.335938 144.47 4.59194 149 9.79194 149H72.2079C77.4079 149 81.6639 144.479 81.6639 138.936V10.0639C81.6639 4.52534 77.4079 0 72.2079 0ZM31.0159 7.25417H50.9839C51.6159 7.25417 52.1279 7.79909 52.1279 8.47597C52.1279 9.1486 51.6159 9.69351 50.9839 9.69351H31.0159C30.3839 9.69351 29.8719 9.1486 29.8719 8.47597C29.8719 7.79909 30.3839 7.25417 31.0159 7.25417ZM40.9999 143.968C38.3879 143.968 36.2719 141.716 36.2719 138.932C36.2719 136.148 38.3879 133.9 40.9999 133.9C43.6119 133.9 45.7279 136.148 45.7279 138.932C45.7279 141.716 43.6119 143.968 40.9999 143.968ZM75.0839 130.375H6.91594V15.96H75.0839V130.375Z" fill="#F8F5F5"/>
</svg>
