<svg width="512" height="512" viewBox="0 0 512 512" fill="none" xmlns="http://www.w3.org/2000/svg">
<path d="M256 512C397.385 512 512 397.385 512 256C512 114.615 397.385 0 256 0C114.615 0 0 114.615 0 256C0 397.385 114.615 512 256 512Z" fill="white"/>
<path d="M256 386.272C230.236 386.271 205.05 378.631 183.629 364.316C162.207 350.002 145.51 329.657 135.651 305.854C125.792 282.05 123.213 255.858 128.239 230.589C133.266 205.32 145.673 182.109 163.891 163.891C182.109 145.673 205.32 133.266 230.589 128.239C255.858 123.213 282.05 125.792 305.854 135.651C329.657 145.51 350.002 162.207 364.316 183.629C378.631 205.05 386.271 230.236 386.272 256C386.238 290.54 372.502 323.655 348.079 348.079C323.655 372.502 290.54 386.238 256 386.272V386.272ZM256 148.956C234.828 148.958 214.132 155.237 196.529 167.001C178.926 178.765 165.207 195.484 157.106 215.045C149.005 234.606 146.886 256.13 151.018 276.894C155.15 297.659 165.346 316.733 180.318 331.703C195.29 346.673 214.364 356.867 235.129 360.996C255.895 365.126 277.418 363.005 296.978 354.902C316.538 346.799 333.256 333.077 345.018 315.473C356.779 297.869 363.057 277.172 363.056 256C363.027 227.617 351.739 200.405 331.668 180.336C311.597 160.267 284.383 148.981 256 148.956V148.956Z" fill="black"/>
<path d="M244.392 88H267.608V186.672H244.392V88Z" fill="black"/>
<path d="M244.392 325.328H267.608V424H244.392V325.328Z" fill="black"/>
<path d="M325.328 244.392H424V267.608H325.328V244.392Z" fill="black"/>
<path d="M88 244.392H186.672V267.608H88V244.392Z" fill="black"/>
<path d="M256 292.92C276.39 292.92 292.92 276.39 292.92 256C292.92 235.61 276.39 219.08 256 219.08C235.61 219.08 219.08 235.61 219.08 256C219.08 276.39 235.61 292.92 256 292.92Z" fill="black"/>
</svg>
